<?xml version="1.0" encoding="UTF-8" standalone="no"?>
<svg width="142px" height="36px" viewBox="0 0 142 36" version="1.1" xmlns="http://www.w3.org/2000/svg" xmlns:xlink="http://www.w3.org/1999/xlink" xmlns:sketch="http://www.bohemiancoding.com/sketch/ns">
    <!-- Generator: Sketch 3.1.1 (8761) - http://www.bohemiancoding.com/sketch -->
    <title>sean-logo</title>
    <desc>Created with Sketch.</desc>
    <defs></defs>
    <g id="Page-1" stroke="none" stroke-width="1" fill="none" fill-rule="evenodd" sketch:type="MSPage">
        <g id="Website" sketch:type="MSArtboardGroup" transform="translate(-250.000000, -43.000000)" fill="#FFFFFF">
            <g id="Imported-Layers" sketch:type="MSLayerGroup" transform="translate(250.000000, 43.000000)">
                <path d="M5.95213314,13.0475455 C6.88136827,13.3124318 7.80597734,13.5955227 8.74084419,13.8387273 C11.2992578,14.5043182 13.789085,15.2128636 15.7420878,17.2617955 C17.636762,19.2493636 20.6453116,18.4074545 21.5361303,15.8293636 C22.771289,12.2545227 24.2087875,8.80281818 27.6558074,6.75777273 C30.644847,4.98436364 32.2669858,5.40695455 33.7457167,8.60890909 C34.3660113,9.95195455 34.6624816,11.4649773 34.9921388,12.9274773 C35.407881,14.7722727 34.5222918,16.0907727 33.2668187,17.3652955 C31.638847,19.0178182 29.8087365,20.2291364 27.6747139,21.0710455 C27.2052691,21.2563636 26.945204,21.9904773 26.588796,22.4717727 C27.0958527,22.7143636 27.597881,23.1484091 28.1109717,23.1625227 C29.5225241,23.2013864 30.9431275,23.1079091 32.3504561,22.9667727 C32.7257705,22.9291364 33.1964221,22.6155682 33.4005722,22.2860455 C34.3336289,20.7801818 35.2109717,19.2370909 36.0625694,17.6815227 C36.7975099,16.3392955 37.3502238,14.8786364 38.1969943,13.6184318 C39.8579518,11.1460909 43.6637932,11.3778409 45.261796,13.9598182 C46.5335609,16.0148864 47.6283286,18.15525 47.6508555,20.6494773 C47.6657394,22.3032273 48.751255,23.1463636 49.8611076,23.9555455 C50.184932,24.1917955 50.8997592,24.2498864 51.2255949,24.0447273 C53.1283144,22.8477273 55.2086346,21.7924773 56.7625892,20.2142045 C58.3103088,18.6422727 59.3087337,16.5111136 60.6629632,14.4501136 C61.6662153,15.2811818 63.2966006,15.6798409 63.5964901,17.8384091 C63.8326204,19.5392045 64.712779,21.1547045 65.3584164,22.7867727 C65.7826062,23.859 67.8074136,24.2230909 68.9774051,23.6102727 C70.7890113,22.6613864 72.5672295,21.6791591 73.9574618,20.1282955 C74.3140708,19.7308636 74.7310198,19.2481364 74.8074504,18.7543636 C75.4076317,14.8694318 76.8616232,11.3142273 78.2679462,7.66881818 C79.5051161,4.46175 81.465762,2.40361364 84.2194759,0.959727273 C86.6354873,-0.307022727 89.3292635,-0.190431818 91.7486941,0.914931818 C92.806051,1.39786364 93.6888244,2.7 94.2212238,3.83809091 C94.8507705,5.18420455 93.4536997,6.45197727 91.9409773,6.10015909 C87.4752181,5.06147727 84.4982465,6.42293182 82.4668017,10.7024318 C81.3553399,13.0438636 80.2388499,15.4679318 79.6953881,17.9824091 C78.9789518,21.2952273 80.1410992,24.3805909 81.7543881,27.3299318 C84.2836374,31.9538864 90.2971161,30.8622273 93.0395666,28.4852045 C94.2073456,27.4733182 95.4581926,26.5606364 96.6684108,25.5988636 C99.1890113,23.5963636 100.994785,21.4216364 100.455748,17.7034091 C99.8809093,13.7397273 99.7964334,9.67581818 101.64183,5.86268182 C103.282674,5.93202273 104.812694,7.18261364 105.025292,9.26897727 C105.240303,11.3794773 105.070949,13.5421364 104.945241,15.6745227 C104.761807,18.7858636 105.093677,21.7975909 106.403456,24.6342273 C106.962807,25.84575 107.759093,25.8829773 108.714476,24.8903182 C110.394742,23.1443182 112.08064,21.4040455 113.763924,19.6613182 C115.265382,18.1069773 116.208697,18.1127045 117.535773,19.8497045 C119.101394,21.8990455 120.571878,24.0234545 122.092646,26.1083864 C123.380904,27.8746364 124.397431,28.2630682 126.40836,27.4855909 C128.189796,26.7966818 129.918535,25.9557955 131.633195,25.1046818 C132.572286,24.6383182 133.42147,24.5941364 134.229623,25.2703636 C136.585295,27.2419773 138.998892,29.1542727 141.212966,31.2803182 C141.730482,31.7771591 141.830445,33.1202045 141.584057,33.8972727 C141.432603,34.3742727 140.25698,34.7588182 139.543762,34.7543182 C138.280847,34.74675 137.091748,34.3634318 136.326235,33.0950455 C135.846331,32.2997727 135.231669,31.4605227 134.467363,31.0080682 C133.749921,30.5834318 132.662997,30.3244773 131.903921,30.5552045 C130.450734,30.9970227 129.092884,31.7951591 127.735436,32.5229318 C125.476711,33.7338409 123.050643,33.3640227 121.37983,31.4920227 C121.158785,31.2445227 120.935929,30.9747273 120.660377,30.8055682 C118.783805,29.6545909 117.617232,27.9942955 116.937,25.8805227 C116.433564,24.3165682 115.568289,24.1770682 114.428467,25.3673182 C112.63798,27.2370682 110.841258,29.1027273 109.110105,31.0287273 C107.324042,33.0154773 104.958717,32.59575 103.86596,30.1504091 C103.212076,28.6872955 102.297122,27.3448636 101.538649,26.01675 C100.183212,27.3479318 98.572136,28.3250455 97.8633428,29.7621818 C96.6740425,32.1739773 94.3322493,33.0418636 92.4961048,34.4078182 C89.0452635,36.9750682 84.8240822,36.2450455 81.3283881,33.0692727 C79.2826629,31.2107727 77.3674731,29.241 76.5764164,26.3816591 C76.0906799,24.6264545 74.8764391,24.5599773 73.4944533,25.8392045 C72.2490368,26.9920227 70.9239717,28.1010682 69.4884844,28.9857273 C67.2040142,30.3936136 65.2729348,29.5335 62.8394249,27.0928636 C61.8979207,26.1486818 61.2963314,24.8541136 60.4899887,23.6444318 C58.8079122,24.7794545 56.932949,25.8831818 55.2369943,27.2213182 C51.2292153,30.3833864 50.811864,29.6267727 46.7992578,27.3763636 C46.7039207,27.3229773 46.6248754,27.2395227 46.538187,27.1703864 C44.2060482,25.3082045 44.1644136,25.2505227 41.7870198,27.0198409 C39.9794363,28.3651364 37.468289,27.4698409 35.3334618,24.9445227 C30.5235637,29.1497727 25.824289,29.0859545 21.2929603,23.9391818 C21.256153,24.5031136 21.1286346,24.9228409 21.2215581,25.2838636 C21.9124504,27.9654545 20.5320737,29.5461818 18.5730368,31.0197273 C16.6693116,32.4519545 14.5753144,33.26175 12.3109575,33.7534773 C10.2519575,34.2008182 8.2693881,33.9533182 6.36083569,33.0674318 C5.50923796,32.6720455 4.69605666,32.1676364 3.81428895,31.8685909 C1.1008017,30.9483409 0.515101983,28.5498409 -0.00221246459,26.1750682 C-0.246991501,25.0512955 1.57266006,22.8743182 3.08015297,22.3543636 C5.13513031,21.6454091 7.23978754,21.0863864 9.30059773,20.3937955 C9.68918697,20.2630909 9.97198017,19.8075682 10.3036487,19.5019773 C9.92028895,19.2436364 9.56911048,18.8584773 9.14833994,18.7484318 C7.16054108,18.2284773 5.11823513,17.9003864 3.1616119,17.2853182 C0.0798498584,16.3163864 -0.744393768,14.1465682 0.819818697,11.2528636 C2.42043626,8.29165909 4.93942776,6.534 8.17324646,5.81215909 C8.60045326,5.71684091 9.09866006,5.60290909 9.41564589,5.45522727 C11.4645892,4.5 12.3352946,4.79863636 13.7307564,5.18931818 C14.249881,5.33475 14.9464051,6.50965909 14.8124504,7.00609091 C14.5847677,7.85025 13.9105694,8.82654545 13.1589348,9.20965909 C11.9123116,9.84518182 10.417289,9.95359091 9.09886119,10.4729318 C7.93691501,10.9305 6.87312181,11.6464091 5.76628612,12.2481818 C5.82823513,12.5145 5.89018414,12.7810227 5.95213314,13.0475455 L5.95213314,13.0475455 Z M9.60088952,29.7184091 C9.64232295,29.5760455 9.68375637,29.4338864 9.7251898,29.2915227 C12.4644221,29.1372955 14.9663173,28.1597727 16.7853654,26.3094545 C17.2646657,25.8220227 17.6741728,24.8982955 17.5530907,24.2907955 C17.4680113,23.8649318 16.4545014,23.4585 15.8090652,23.3605227 C14.8422181,23.2140682 13.8001473,23.1827727 12.8514023,23.3916136 C10.4532918,23.9191364 8.03164873,24.4431818 5.73048442,25.2830455 C3.85371105,25.9682727 3.6944136,27.3604091 5.37568555,28.3900909 C6.60159207,29.1411818 8.17988385,29.29725 9.60088952,29.7184091 L9.60088952,29.7184091 Z M44.0143683,17.2323409 C43.3956827,16.3591364 43.0823173,15.4955455 42.5247762,15.2772955 C42.146847,15.1292045 41.1413824,15.7549091 40.9106827,16.2654545 C40.1845921,17.8729773 39.6320793,19.5721364 39.152779,21.2768182 C39.0397422,21.6791591 39.3557224,22.4005909 39.7034816,22.6752955 C39.9430312,22.8647045 40.8167535,22.69575 40.9959632,22.4153182 C42.0507054,20.7638182 42.9849688,19.0325455 44.0143683,17.2323409 L44.0143683,17.2323409 Z M31.5869547,12.9820909 C31.2820368,12.4304318 31.1066487,11.6693182 30.7518499,11.5695 C30.140204,11.3976818 29.1047705,11.3739545 28.7962323,11.7519545 C27.6630482,13.1393864 26.7207394,14.6957727 25.7959292,16.2439773 C25.631,16.5201136 25.7563059,17.2595455 25.9912295,17.4229773 C26.2553173,17.6064545 26.883255,17.5164545 27.1996374,17.3063864 C28.3869263,16.5184773 29.5659688,15.6964091 30.6343881,14.7540682 C31.0855297,14.3560227 31.2548839,13.6276364 31.5869547,12.9820909 L31.5869547,12.9820909 Z M122.080377,13.7863636 C122.029691,12.4367727 122.915482,11.2506136 123.986918,11.2332273 C125.576272,11.2074545 127.295357,12.2723182 127.042331,13.3142727 C126.735402,14.5779545 128.240482,16.7240455 125.571042,16.9760455 C124.109207,17.1139091 122.135688,15.2615455 122.080377,13.7863636" id="sean-logo" sketch:type="MSShapeGroup"></path>
            </g>
        </g>
    </g>
</svg>